<svg class="" xmlns="http://www.w3.org/2000/svg" width="16" height="16" fill="none" viewBox="0 0 16 16"><path fill="#777" d="M16 8c0-4.411-3.589-8-8-8S0 3.589 0 8c0 4.41 3.589 8 8 8 4.412 0 8-3.588 8-8Zm-7.214-.012a.759.759 0 1 1-1.518 0V4.039a.76.76 0 0 1 1.518 0v3.949Zm4.38.025A5.171 5.171 0 0 1 8 13.178a5.171 5.171 0 0 1-5.166-5.165A5.13 5.13 0 0 1 4.35 4.36a.756.756 0 0 1 1.074 0 .759.759 0 0 1 0 1.074 3.624 3.624 0 0 0-1.07 2.58A3.65 3.65 0 0 0 8 11.66a3.65 3.65 0 0 0 3.647-3.646c0-.974-.38-1.89-1.068-2.579a.76.76 0 0 1 1.075-1.073 5.135 5.135 0 0 1 1.512 3.652Z"></path></svg>